<svg width="215" height="40" viewBox="0 0 215 40" fill="none" xmlns="http://www.w3.org/2000/svg">
    <path d="M0.5 2C0.5 1.17157 1.17157 0.5 2 0.5H213C213.828 0.5 214.5 1.17157 214.5 2V38C214.5 38.8284 213.828 39.5 213 39.5H2C1.17157 39.5 0.5 38.8284 0.5 38V2Z" stroke="#E0E0E0"/>
    <path fill-rule="evenodd" clip-rule="evenodd" d="M18 27.2859L22.2392 22.9636C24.5869 20.5699 24.5869 16.685 22.2392 14.2912C19.8968 11.9029 16.1032 11.9029 13.7608 14.2912C11.4131 16.685 11.4131 20.5699 13.7608 22.9636L18 27.2859Z" stroke="#262626"/>
    <path fill-rule="evenodd" clip-rule="evenodd" d="M18 20.5C19.1046 20.5 20 19.6046 20 18.5C20 17.3954 19.1046 16.5 18 16.5C16.8954 16.5 16 17.3954 16 18.5C16 19.6046 16.8954 20.5 18 20.5Z" stroke="#262626"/>
</svg>
