<svg width="300" height="20" viewBox="10 45 195 40" fill="none" xmlns="http://www.w3.org/2000/svg">
    <path d="M23.0769 56.8462V67.4616C23.0769 71 21.5384 72.4616 17.8461 72.4616C14.1538 72.4616 12.6154 71 12.6154 67.4616V56.3846H9.07689C8.84613 56.3846 8.61536 56.6154 8.61536 56.8462V67.6154C8.61536 73.5385 12.3846 75.6154 17.8461 75.6154C23.3077 75.6154 27.0769 73.5385 27.0769 67.6154V56.3846H23.5384C23.3077 56.3846 23.0769 56.5385 23.0769 56.8462Z" fill="white"/>
    <path d="M74.5385 59.4616C74.8462 59.4616 75.0001 59.3846 75.077 59.1539L76.077 56.6154C76.1539 56.4616 76.077 56.3846 75.9231 56.3846H61.6154C60.3077 56.3846 59.7693 56.7693 59.7693 57.6923V74.1539C59.7693 74.9231 60.1539 75.3077 61.1539 75.3077H74.4616C74.7693 75.3077 74.9231 75.2308 75.0001 75L76.0001 72.4616C76.077 72.3077 76.0001 72.2308 75.8462 72.2308H63.6924V68.8462C63.6924 67.6923 64.3077 67.1539 66.077 67.1539H71.3847C71.6924 67.1539 71.8462 67.077 71.9231 66.8462L72.9231 64.3846C73.0001 64.2308 72.9231 64.1539 72.7693 64.1539H63.7693V59.3846H74.5385V59.4616Z" fill="white"/>
    <path fill-rule="evenodd" clip-rule="evenodd" d="M49.3845 65.3077C50.923 64.4615 51.5385 63 51.5385 61.1539C51.5385 57 48.1538 56.3846 44.6154 56.3846H36.5385C35.2307 56.3846 34.6923 56.7693 34.6923 57.6924V74.1539C34.6923 74.9231 35.0769 75.3077 36.0769 75.3077H46C49.7692 75.3077 52.3845 73.8462 52.3845 70.0769C52.4615 67.7693 51.5385 65.8462 49.3845 65.3077ZM38.6923 59.3846H44.923C47 59.3846 47.6154 60.1539 47.6154 61.7693C47.6154 63.3846 47 64.1539 44.923 64.1539H38.6923V59.3846ZM38.6923 72.2307H45.6923C47.923 72.2307 48.5385 71.4615 48.5385 69.6923C48.5385 67.9231 47.923 67.0769 45.6923 67.0769H41.0769C39.3076 67.0769 38.6923 67.6154 38.6923 68.7692V72.2307Z" fill="white"/>
    <path fill-rule="evenodd" clip-rule="evenodd" d="M96.6154 67.6924L100.846 75C100.923 75.0769 100.923 75.3077 100.769 75.3077H97.1538C96.8462 75.3077 96.7693 75.2308 96.6154 75L92.7693 68.0769H89.3077C87.5385 68.0769 86.9231 68.6154 86.9231 69.7693V75.3077H83.4615C83.2307 75.3077 83 75.0769 83 74.8462V57.6924C83 56.7693 83.5385 56.3846 84.8462 56.3846H92.9231C97.6154 56.3846 100.462 57.6154 100.462 62.2308C100.462 65.7693 98.6923 67.1539 96.6154 67.6924ZM86.8462 65.1539H93.4615C95.9231 65.1539 96.4615 64.2308 96.4615 62.2308C96.4615 60.3077 95.9231 59.3846 93.4615 59.3846H86.8462V65.1539Z" fill="white"/>
    <path d="M130.308 73.6154L130.231 75.3077H116.231V56.3846H129.692L129.769 58.1539H118.154V64.6923H128.154V66.2308H118.154V73.6154H130.308Z" fill="#57AD56" stroke="#57AD56" stroke-width="0.25"/>
    <path fill-rule="evenodd" clip-rule="evenodd" d="M141.923 70.3846H153.077L155.231 75.3077H157.385L148.692 56.3846H146.462L137.692 75.3077H139.769L141.923 70.3846ZM142.615 68.7693L146.692 59.6155L147.462 57.6924H147.538L148.308 59.6155L152.308 68.7693H142.615Z" fill="#57AD56"/>
    <path d="M153.077 70.3846L153.191 70.3345L153.159 70.2596H153.077V70.3846ZM141.923 70.3846V70.2596H141.841L141.808 70.3345L141.923 70.3846ZM155.231 75.3077L155.116 75.3578L155.149 75.4327H155.231V75.3077ZM157.385 75.3077V75.4327H157.579L157.498 75.2556L157.385 75.3077ZM148.692 56.3846L148.806 56.3325L148.772 56.2596H148.692V56.3846ZM146.462 56.3846V56.2596H146.382L146.348 56.3321L146.462 56.3846ZM137.692 75.3077L137.579 75.2552L137.497 75.4327H137.692V75.3077ZM139.769 75.3077V75.4327H139.851L139.884 75.3578L139.769 75.3077ZM146.692 59.6155L146.807 59.6664L146.808 59.6619L146.692 59.6155ZM142.615 68.7693L142.501 68.7184L142.423 68.8943H142.615V68.7693ZM147.462 57.6924V57.5674H147.377L147.345 57.646L147.462 57.6924ZM147.538 57.6924L147.655 57.646L147.623 57.5674H147.538V57.6924ZM148.308 59.6155L148.191 59.6619L148.193 59.6655L148.308 59.6155ZM152.308 68.7693V68.8943H152.499L152.422 68.7192L152.308 68.7693ZM153.077 70.2596H141.923V70.5096H153.077V70.2596ZM155.345 75.2576L153.191 70.3345L152.962 70.4347L155.116 75.3578L155.345 75.2576ZM157.385 75.1827H155.231V75.4327H157.385V75.1827ZM148.579 56.4368L157.271 75.3599L157.498 75.2556L148.806 56.3325L148.579 56.4368ZM146.462 56.5096H148.692V56.2596H146.462V56.5096ZM137.806 75.3603L146.575 56.4372L146.348 56.3321L137.579 75.2552L137.806 75.3603ZM139.769 75.1827H137.692V75.4327H139.769V75.1827ZM141.808 70.3345L139.655 75.2576L139.884 75.3578L142.037 70.4347L141.808 70.3345ZM146.578 59.5646L142.501 68.7184L142.73 68.8201L146.806 59.6663L146.578 59.5646ZM147.345 57.646L146.576 59.5691L146.808 59.6619L147.578 57.7388L147.345 57.646ZM147.538 57.5674H147.462V57.8174H147.538V57.5674ZM148.424 59.5691L147.655 57.646L147.422 57.7388L148.192 59.6619L148.424 59.5691ZM152.422 68.7192L148.422 59.5654L148.193 59.6655L152.193 68.8193L152.422 68.7192ZM142.615 68.8943H152.308V68.6443H142.615V68.8943Z" fill="#57AD56"/>
    <path d="M171.231 58.1539V75.3077H169.308V58.1539H162.231L162.308 56.3846H178.385V58.1539H171.231Z" fill="#57AD56" stroke="#57AD56" stroke-width="0.25"/>
    <path d="M192.077 75.6923C189.461 75.6923 187.385 75.0769 185.692 74.0769L186 72.3846C187.769 73.3846 189.769 74 192.154 74C195.692 74 197.538 72.3846 197.538 70.0769C197.538 65.0769 186 67.6923 186 61.2308C186 58.4615 188.077 56 192.923 56C195.154 56 197.154 56.3846 198.769 57.1538L198.461 58.7692C196.692 58.0769 195 57.6923 193 57.6923C189.231 57.6923 187.846 59.3846 187.846 61.0769C187.846 65.8462 199.385 63.1538 199.385 69.9231C199.308 73.3077 196.846 75.6923 192.077 75.6923Z" fill="#57AD56" stroke="#57AD56" stroke-width="0.25"/>
</svg>
