<svg width="18" height="18" viewBox="0 0 18 18" fill="none" xmlns="http://www.w3.org/2000/svg">
    <path fill-rule="evenodd" clip-rule="evenodd" d="M13.0326 0H4.96729C2.22827 0 0 2.22839 0 4.96741V13.0326C0 15.7717 2.22827 18 4.96729 18H13.0326C15.7717 18 18 15.7716 18 13.0326V4.96741C18.0001 2.22839 15.7717 0 13.0326 0ZM17.0001 13.3579C17.0001 15.3662 15.3662 17 13.3579 17H4.64197C2.63379 17.0001 1 15.3662 1 13.3579V4.64209C1 2.63391 2.63379 1 4.64197 1H13.3578C15.3661 1 17 2.63391 17 4.64209L17.0001 13.3579ZM4.36182 9.00024C4.36182 6.44275 6.4425 4.36206 9 4.36206C11.5575 4.36206 13.6381 6.44275 13.6381 9.00024C13.6381 11.5576 11.5575 13.6382 9 13.6382C6.4425 13.6382 4.36182 11.5576 4.36182 9.00024ZM13.4348 2.83411C13.5833 2.68506 13.7898 2.59998 14 2.59998C14.2108 2.59998 14.4174 2.68506 14.5658 2.83411C14.7148 2.98254 14.7999 3.18909 14.7999 3.40002C14.7999 3.61011 14.7148 3.81665 14.5658 3.96582C14.4166 4.11414 14.2108 4.19995 14 4.19995C13.7898 4.19995 13.5833 4.11414 13.4348 3.96582C13.2858 3.81665 13.2 3.61023 13.2 3.40002C13.2 3.26428 13.2355 3.13049 13.3004 3.0127C13.3364 2.94739 13.3816 2.88708 13.4348 2.83411Z" fill="white"/>
</svg>
