<svg width="18" height="16" viewBox="0 0 18 16" fill="none" xmlns="http://www.w3.org/2000/svg">
    <path fill-rule="evenodd" clip-rule="evenodd" d="M17.5303 2.09489C17.6525 2.06364 17.8052 2.09489 17.8969 2.18864C17.9885 2.28239 18.0191 2.43864 17.9886 2.56364C17.7136 3.46977 17.1637 4.12602 16.4915 4.46977V4.5634C16.4915 10.5942 12.092 15.5 6.71485 15.5C3.69019 15.5 1.2461 14.9688 0.146187 14.0627C0.0239946 13.9377 -0.0371626 13.7814 0.0239946 13.5939C0.0850908 13.4377 0.237801 13.3127 0.42115 13.3127C2.2237 13.2814 3.38471 12.844 4.2707 12.3128C2.55976 12.094 1.49043 11.2504 0.940499 9.65678C0.879402 9.50053 0.940499 9.34428 1.06269 9.25053C1.18494 9.15678 1.36823 9.15678 1.49043 9.21928C1.94874 9.53178 2.40699 9.59428 2.95692 9.59428C1.79597 8.87566 0.726631 7.68816 0.298897 6.21953C0.268379 6.06328 0.329476 5.8759 0.451668 5.8134C0.604439 5.71965 0.75721 5.7509 0.879402 5.84465C1.21546 6.12578 1.5821 6.31328 2.13203 6.40703C0.940499 5.15715 0.207283 3.31352 1.24604 1.28252L1.42933 0.907516L1.73481 1.22002C3.62904 3.25102 5.37049 4.18852 8.54792 4.8134V4.6884C8.54792 2.40739 10.2894 0.532516 12.4586 0.501266C13.314 0.501266 14.5056 1.12627 14.9944 1.40752C15.0061 1.40752 15.0178 1.41203 15.0277 1.41594C15.0439 1.42229 15.0555 1.4268 15.0555 1.40752C15.6666 1.22002 16.3998 0.907516 17.2553 0.532516C17.3775 0.470016 17.5303 0.501266 17.6219 0.595016C17.7136 0.688766 17.7441 0.813766 17.683 0.970016C17.5302 1.40752 17.2858 1.87627 16.9192 2.31364L17.5303 2.09489ZM15.7354 4.23784L15.9133 4.17741C16.4764 3.96623 16.8025 3.51347 17.01 3.12126L15.854 3.5136C15.7058 3.5739 15.528 3.5136 15.4687 3.36272C15.4094 3.21172 15.4391 3.03069 15.5576 2.94011C16.0319 2.54778 16.3875 2.12529 16.6543 1.67265C16.0615 1.91399 15.528 2.12529 15.0834 2.27617C14.9056 2.33647 14.7277 2.30632 14.5499 2.21587L14.5314 2.20561C14.1834 2.01201 13.0852 1.40141 12.4158 1.4312C10.6374 1.46135 9.21467 3.00053 9.21467 4.87163V5.7166L8.85896 5.6563C5.59858 5.05266 3.79054 4.17741 1.89356 2.27617C1.00434 4.56975 2.84199 6.16936 3.46449 6.62199L4.20545 7.16521H3.28657C2.69379 7.16521 2.04169 7.1049 1.44892 6.8333C2.10102 8.22148 3.43482 9.2476 4.5611 9.57964L4.47224 10.1832C4.23512 10.1832 3.99799 10.1832 3.76087 10.2133C3.13844 10.2436 2.57526 10.2436 2.04176 10.0624C2.63453 11.2093 3.67194 11.6922 5.3614 11.6922H6.25062L5.50965 12.2354C4.59077 12.9596 3.40516 13.6236 1.35999 13.7746C2.33808 14.2574 4.14613 14.7101 6.84339 14.7101C11.4647 14.7101 15.7354 9.99907 15.7354 4.7509V4.23784Z" fill="white"/>
</svg>


